<?xml version="1.0" encoding="utf-8"?>
<!-- Generator: Adobe Illustrator 22.1.0, SVG Export Plug-In . SVG Version: 6.00 Build 0)  -->
<svg version="1.1" id="圖層_1" xmlns="http://www.w3.org/2000/svg" xmlns:xlink="http://www.w3.org/1999/xlink" x="0px" y="0px"
	 viewBox="0 0 48 48" style="enable-background:new 0 0 48 48;" xml:space="preserve">
<style type="text/css">
	.st0{fill:none;}
	.st1{fill:#466305;}
</style>
<path class="st0" d="M0,0h48v48H0V0z"/>
<path class="st1" d="M35.3,11.7c-0.8-1.1-2-1.7-3.3-1.7l-22,0c-2.2,0-4,1.8-4,4c0,0,0,0,0,0v20c0,2.2,1.8,4,4,4c0,0,0,0,0,0l22,0
	c1.3,0,2.5-0.6,3.3-1.7L44,24L35.3,11.7z M32,34H10V14h22l7.1,10L32,34z"/>
</svg>
