<?xml version="1.0" encoding="utf-8"?>
<!-- Generator: Adobe Illustrator 22.1.0, SVG Export Plug-In . SVG Version: 6.00 Build 0)  -->
<svg version="1.1" id="圖層_1" xmlns="http://www.w3.org/2000/svg" xmlns:xlink="http://www.w3.org/1999/xlink" x="0px" y="0px"
	 viewBox="0 0 57.9 57.9" style="enable-background:new 0 0 57.9 57.9;" xml:space="preserve">
<style type="text/css">
	.st0{fill:none;}
	.st1{fill:#B75929;}
</style>
<path class="st0" d="M31.5,17.2c-0.8-0.3-1.7-0.5-2.6-0.5c-1.3,0-2.5,0.4-3.5,1.2c-1.1,0.8-1.8,2-1.9,3.3c0,0.3,0,0.6,0,0.9
	c0,0.1,0.1,0.2,0.2,0.2h1.7c0.1,0,0.2-0.1,0.2-0.2c0-0.3,0-0.5,0.1-0.8c0.1-0.7,0.5-1.3,1.1-1.7c0.6-0.5,1.4-0.7,2.2-0.7
	c0.5,0,1.1,0.1,1.6,0.2c1,0.3,1.6,1.2,1.7,2.2c0,1.4-0.9,2-2.4,3.1c-1.5,0.9-2.4,2.4-2.4,4.2v0.9c0,0.1,0.1,0.2,0.2,0.2h1.7
	c0.1,0,0.2-0.1,0.2-0.2v-0.9c0-1,0.6-1.9,1.4-2.3c1.6-1,3.3-2.2,3.3-4.9C34.4,19.5,33.2,17.8,31.5,17.2z"/>
<path class="st1" d="M28.9,0C13,0,0,13,0,28.9s13,29,29,29s28.9-13,28.9-29C57.9,13,44.9,0,28.9,0z M30.5,45.5H26
	c-0.2,0-0.4-0.2-0.4-0.4v-4.6c0-0.2,0.2-0.4,0.4-0.4l0,0h4.6c0.2,0,0.4,0.2,0.4,0.4v4.6C30.9,45.4,30.7,45.5,30.5,45.5z M33.1,30.6
	c-2.4,1.6-2.8,3.1-2.8,4.5v1.7c0,0.2-0.2,0.5-0.5,0.5l0,0h-3.3c-0.2,0-0.5-0.2-0.5-0.5l0,0v-1.7c0-3.3,1.5-5.9,4.6-8
	c2.9-2,4.6-3.2,4.6-5.9c0-1.8-1.1-3.3-3.2-4.3c-1-0.4-2-0.5-3.1-0.5c-1.5-0.1-3,0.4-4.2,1.3c-1.1,0.8-1.9,2-2.2,3.4
	c-0.1,0.5-0.1,1-0.1,1.6c0,0.2-0.2,0.5-0.5,0.5l0,0h-3.2c-0.2,0-0.4-0.2-0.5-0.4c-0.1-0.6,0-1.2,0-1.8c0.3-2.6,1.7-4.9,3.7-6.5
	c1.9-1.5,4.3-2.3,6.8-2.2c1.7-0.1,3.4,0.2,4.9,0.9c3.7,1.7,5.7,4.6,5.7,8.1C39.5,26.3,36.1,28.6,33.1,30.6z"/>
</svg>
